# xmcd
#
# Track frame offsets: 
#        182
#        15367
#        30922
#        47430
#        62617
#        78297
#        93385
#        107292
#        123227
#        138765
#
# Disc length: 2035 seconds
#
# Revision: 9
# Processed by: cddbd v1.5.2PL0 Copyright (c) Steve Scherf et al.
# Submitted via: ExactAudioCopy v0.99pb4
#
DISCID=6107f10a
DTITLE=Paul Brandt - Calm Before The Storm
DYEAR=1996
DGENRE=Country
TTITLE0=My Heart Has A History
TTITLE1=Take It From Me
TTITLE2=I Do
TTITLE3=12 Step Recovery
TTITLE4=I Meant To Do That
TTITLE5=One And Only One
TTITLE6=All Over Me
TTITLE7=Calm Before The Storm
TTITLE8=On The Inside
TTITLE9=Pass Me By (If You're Only Passing Through)
EXTD=YEAR: 1996
EXTT0=
EXTT1=
EXTT2=
EXTT3=
EXTT4=
EXTT5=
EXTT6=
EXTT7=
EXTT8=
EXTT9=
PLAYORDER=
